<svg width="100" height="100" viewBox="0 0 100 100" fill="none" xmlns="http://www.w3.org/2000/svg">
<g clip-path="url(#clip0_121_1122)">
<path d="M30.249 63.3094C26.1398 63.3094 22.7966 59.9662 22.7966 55.8571C22.7966 51.7479 26.1398 48.4047 30.249 48.4047C34.3582 48.4047 37.7014 51.7479 37.7014 55.8571C37.7014 59.9662 34.3582 63.3094 30.249 63.3094ZM30.249 52.3109C28.2936 52.3109 26.7029 53.9016 26.7029 55.8571C26.7029 57.8125 28.2936 59.4032 30.249 59.4032C32.2044 59.4032 33.7952 57.8125 33.7952 55.8571C33.7952 53.9016 32.2044 52.3109 30.249 52.3109Z" fill="black"/>
<path d="M85.7017 81.6589C85.5742 81.6589 85.4453 81.6467 85.3202 81.6215C85.1958 81.5964 85.0722 81.559 84.9555 81.5101C84.8357 81.4613 84.7228 81.401 84.6175 81.3301C84.5099 81.2584 84.41 81.1783 84.3207 81.0882C84.2307 80.9967 84.1483 80.8967 84.0781 80.7892C84.0079 80.6839 83.9477 80.571 83.8988 80.4535C83.85 80.3344 83.8126 80.2131 83.7874 80.088C83.7615 79.9614 83.7485 79.8347 83.7485 79.7058C83.7485 79.5784 83.7615 79.4494 83.7874 79.3243C83.8126 79.2 83.85 79.0764 83.8988 78.9596C83.9477 78.8421 84.0079 78.7269 84.0781 78.6217C84.1483 78.5141 84.2307 78.4141 84.3207 78.3249C84.41 78.2348 84.5099 78.1524 84.6175 78.0823C84.7228 78.0121 84.8357 77.9518 84.9555 77.903C85.0722 77.8541 85.1958 77.8167 85.3202 77.7916C85.5727 77.7405 85.8321 77.7405 86.0839 77.7916C86.209 77.8167 86.3303 77.8541 86.4493 77.903C86.5668 77.9518 86.6797 78.0121 86.785 78.0823C86.8926 78.1524 86.9926 78.2348 87.0818 78.3249C87.1741 78.4141 87.2542 78.5141 87.326 78.6217C87.3969 78.7269 87.4572 78.8421 87.506 78.9596C87.5548 79.0764 87.5922 79.2 87.6174 79.3243C87.6426 79.4494 87.6548 79.5784 87.6548 79.7058C87.6548 79.8347 87.6426 79.9614 87.6174 80.088C87.5922 80.2131 87.5548 80.3344 87.506 80.4535C87.4572 80.571 87.3969 80.6839 87.326 80.7892C87.2542 80.8967 87.1741 80.9967 87.0818 81.0882C86.9918 81.1783 86.8926 81.2584 86.785 81.3301C86.6797 81.401 86.5668 81.4613 86.4493 81.5101C86.3303 81.559 86.209 81.5964 86.0839 81.6215C85.9572 81.6467 85.8306 81.6589 85.7017 81.6589Z" fill="black"/>
<path d="M98.5626 11.8439C94.2482 10.6766 90.4938 10.1562 86.3892 10.1562C71.8933 10.1562 64.6225 16.716 57.5912 23.0598C54.6974 25.6706 51.947 28.1517 48.7144 30.1956C43.6813 25.9933 37.2597 21.8307 26.2856 21.8307C13.7611 21.8307 7.13654 27.1973 0.730133 32.3868C0.272369 32.7576 0.00610352 33.3153 0.00610352 33.905V87.8914C0.00610352 88.9702 0.880432 89.8445 1.95923 89.8445H98.053C99.1318 89.8445 100.006 88.9702 100.006 87.8914V13.7291C100.006 12.8471 99.4148 12.0743 98.5626 11.8439ZM80.3482 64.4547V55.8914L83.3092 53.1387L86.2709 55.8914V64.4547H80.3482ZM70.5185 64.4547V55.8914L73.4802 53.1387L76.442 55.8914V64.4547H70.5185ZM60.6895 64.4547V55.8914L63.6513 53.1387L66.613 55.8914V64.4547H60.6895ZM51.6785 64.4547V61.2312C51.7647 61.1954 51.8486 61.1534 51.931 61.1053C53.5789 60.128 55.2109 59.0393 56.7833 57.9094V64.4547H51.6785ZM37.6015 77.7527V68.1297C37.6015 67.0509 36.7271 66.1766 35.6483 66.1766H24.8497C23.7709 66.1766 22.8966 67.0509 22.8966 68.1297V77.7527H12.7258V55.7152L30.249 42.8429L47.7722 55.7159L47.773 77.7534H37.6015V77.7527ZM33.6952 77.7527H26.8028V70.0829H33.6952V77.7527ZM50.8987 53.1654L50.8842 53.1548C50.8835 53.154 50.8827 53.1532 50.882 53.1525L31.4049 38.8458C31.3515 38.8062 31.2958 38.7695 31.2393 38.736C30.9456 38.5628 30.6168 38.4735 30.2864 38.4666C30.2742 38.4666 30.2612 38.4666 30.249 38.4666C30.2361 38.4666 30.2231 38.4666 30.2109 38.4666C29.8805 38.4735 29.5517 38.5628 29.258 38.736C29.2015 38.7695 29.1458 38.8062 29.0924 38.8458L9.59854 53.1654V48.9616L30.249 33.7921L50.8987 48.9616V53.1654ZM15.4663 39.8048L12.989 41.6245V37.4306H15.4663V39.8048ZM96.0999 50.5577L94.4679 49.0417C93.7187 48.3444 92.5583 48.3452 91.8091 49.0417L88.224 52.3735L84.639 49.0417C83.8898 48.3444 82.7293 48.3444 81.9801 49.0417L78.3951 52.3735L74.81 49.0417C74.0608 48.3444 72.9004 48.3444 72.1512 49.0417L68.5661 52.3735L66.2521 50.2228C67.1608 49.4125 67.9535 48.69 68.602 48.0988C68.9148 47.8134 69.1902 47.5616 69.4267 47.3488C76.3794 41.0751 82.9575 35.141 96.1006 34.8564V50.5577H96.0999ZM90.1772 55.8914L93.1381 53.1387L96.0999 55.8914V64.4547H90.1772V55.8914ZM3.91235 34.8366C9.80148 30.0797 15.583 25.7378 26.2856 25.7378C36.721 25.7378 42.3607 29.8553 47.2435 34.0729C47.8722 34.6161 48.7762 34.7023 49.4965 34.2873C53.6079 31.9153 56.9626 28.8879 60.2074 25.9605C66.9891 19.8425 73.3955 14.0633 86.3892 14.0633C89.6736 14.0633 92.7231 14.431 96.0999 15.2451V30.9494C89.6599 31.0814 84.0164 32.5012 78.8742 35.2798C74.1302 37.8433 70.4086 41.201 66.8091 44.4489C66.5688 44.6655 66.288 44.9219 65.9691 45.2118C63.665 47.3137 59.4971 51.1147 54.805 54.5197V47.9729C54.805 47.3518 54.5097 46.7674 54.0085 46.3989L31.4049 29.7951C30.7167 29.2892 29.7806 29.2892 29.0924 29.7951L19.3726 36.9347V35.4774C19.3726 34.3987 18.4982 33.5243 17.4194 33.5243H11.0359C9.95712 33.5243 9.08279 34.3987 9.08279 35.4774V44.4946L6.48956 46.3989C5.98831 46.7674 5.69229 47.3518 5.69229 47.9729V57.0236C5.69229 57.7599 6.10657 58.4335 6.76346 58.7662C7.04193 58.9073 7.34406 58.9767 7.64542 58.9767C8.05359 58.9767 8.46024 58.8486 8.80203 58.5976L8.81882 58.5854V64.4547H3.91235V34.8366ZM96.0999 85.9383H3.91235V68.3601H8.81958V79.7058C8.81958 80.7846 9.69391 81.6589 10.7727 81.6589H77.9121C78.9909 81.6589 79.8653 80.7846 79.8653 79.7058C79.8653 78.627 78.9909 77.7527 77.9121 77.7527H51.6792L51.6785 68.3601H96.0999V85.9383Z" fill="black"/>
</g>
<defs>
<clipPath id="clip0_121_1122">
<rect width="100" height="100" fill="white" transform="translate(0.00610352)"/>
</clipPath>
</defs>
</svg>
