<svg width="100" height="100" viewBox="0 0 100 100" fill="none" xmlns="http://www.w3.org/2000/svg">
<path d="M89.0625 39.9844L91.1171 41.3797C91.3781 41.5563 91.6828 41.65 91.9953 41.65C92.0921 41.65 92.1921 41.6407 92.289 41.6219C92.6953 41.5438 93.0546 41.3078 93.2875 40.9641L96.7968 35.7906C97.2828 35.0766 97.0953 34.1047 96.3812 33.6203L50.8781 2.74377C50.3468 2.3844 49.6546 2.3844 49.1234 2.74377L3.61715 33.6219C2.90308 34.1063 2.71714 35.0781 3.20152 35.7922L6.71089 40.9656C6.94214 41.3094 7.30308 41.5453 7.70933 41.6235C8.11871 41.7016 8.53902 41.6125 8.88121 41.3813L10.9375 39.9844V55.6172C10.0218 56.0172 9.27339 56.7563 8.88121 57.7281C6.25464 64.2219 3.12496 72.7563 3.12496 76.5625C3.12496 82.1719 6.39058 86.5282 10.9375 87.3485V93.75H3.12496V96.875H96.875V93.75H89.0625V39.9844ZM8.42027 37.9172L6.66558 35.3282L50 5.92346L93.3343 35.3282L91.5796 37.9156L50.8781 10.2969C50.6125 10.1172 50.3062 10.0266 50 10.0266C49.6937 10.0266 49.3875 10.1172 49.1218 10.2969L8.42027 37.9172ZM6.24996 76.5625C6.24996 74.0235 8.26402 67.586 11.7765 58.9C11.9562 58.4578 12.3421 58.411 12.5 58.411C12.6578 58.411 13.0437 58.4578 13.2234 58.9C16.7359 67.586 18.75 74.0235 18.75 76.5625C18.75 81.0891 16.1203 84.375 12.5 84.375C8.87965 84.375 6.24996 81.0891 6.24996 76.5625ZM14.0625 87.3485C18.6093 86.5282 21.875 82.1719 21.875 76.5625C21.875 72.7563 18.7453 64.2219 16.1187 57.7281C15.7265 56.7563 14.9781 56.0172 14.0625 55.6172V37.8641L50 13.4782L85.9375 37.8641V68.2782L85.675 67.8844C85.0953 67.0141 83.6546 67.0141 83.075 67.8844L79.95 72.5719C79.7796 72.8266 79.6875 73.1297 79.6875 73.4375V76.5625H76.5625V73.4375C76.5625 73.1297 76.4703 72.8266 76.3 72.5703L73.175 67.8828C72.5953 67.0125 71.1546 67.0125 70.575 67.8828L67.45 72.5703C67.2796 72.8266 67.1875 73.1297 67.1875 73.4375V76.5625H64.0625V73.4375C64.0625 73.1297 63.9703 72.8266 63.8 72.5703L60.675 67.8828C60.0953 67.0125 58.6546 67.0125 58.075 67.8828L54.95 72.5703C54.7796 72.8266 54.6875 73.1297 54.6875 73.4375V93.75H45.3125V64.0625C45.3125 63.1985 44.614 62.5 43.75 62.5H26.5625C25.6984 62.5 25 63.1985 25 64.0625V93.75H14.0625V87.3485ZM60.9375 93.75H57.8125V73.911L59.375 71.5672L60.9375 73.911V93.75ZM64.0625 79.6875H67.1875V82.8125H64.0625V79.6875ZM64.0625 85.9375H67.1875V93.75H64.0625V85.9375ZM73.4375 93.75H70.3125V73.911L71.875 71.5672L73.4375 73.911V93.75ZM76.5625 79.6875H79.6875V82.8125H76.5625V79.6875ZM76.5625 85.9375H79.6875V93.75H76.5625V85.9375ZM42.1875 93.75H28.125V65.625H42.1875V93.75ZM82.8125 93.75V73.911L84.375 71.5672L85.9375 73.911V93.75H82.8125Z" fill="black"/>
<path d="M45.3125 51.5625H54.6875C58.1344 51.5625 60.9375 48.7594 60.9375 45.3125V35.9375C60.9375 32.4906 58.1344 29.6875 54.6875 29.6875H45.3125C41.8656 29.6875 39.0625 32.4906 39.0625 35.9375V45.3125C39.0625 48.7594 41.8656 51.5625 45.3125 51.5625ZM42.1875 45.3125V42.1875H48.4375V48.4375H45.3125C43.5891 48.4375 42.1875 47.0359 42.1875 45.3125ZM54.6875 48.4375H51.5625V42.1875H57.8125V45.3125C57.8125 47.0359 56.4109 48.4375 54.6875 48.4375ZM57.8125 35.9375V39.0625H51.5625V32.8125H54.6875C56.4109 32.8125 57.8125 34.2141 57.8125 35.9375ZM45.3125 32.8125H48.4375V39.0625H42.1875V35.9375C42.1875 34.2141 43.5891 32.8125 45.3125 32.8125Z" fill="black"/>
<path d="M35.9375 78.125H39.0625V81.25H35.9375V78.125Z" fill="black"/>
</svg>
