<svg width="100" height="100" viewBox="0 0 100 100" fill="none" xmlns="http://www.w3.org/2000/svg">
<g clip-path="url(#clip0_121_1130)">
<path d="M2.5402 55H3.3402V83.3333C3.3402 85.1743 4.83259 86.6667 6.67354 86.6667H30.0069V90C28.1659 90 26.6735 91.4924 26.6735 93.3333V96.6667C26.6735 98.5076 28.1659 100 30.0069 100H70.0069C71.8478 100 73.3402 98.5076 73.3402 96.6667V93.3333C73.3402 91.4924 71.8478 90 70.0069 90V86.6667H93.3402C95.1812 86.6667 96.6735 85.1743 96.6735 83.3333V55H97.4735C98.5701 54.9996 99.5422 54.2947 99.8834 53.2526C100.225 52.2105 99.8575 51.0671 98.9735 50.4183L86.6735 41.4833V27.8333C87.3495 27.3271 87.7242 26.5138 87.6697 25.6711C87.6153 24.8283 87.139 24.07 86.4035 23.655L75.0069 17.2167V8.33333C75.0033 7.14779 74.3681 6.05402 73.3402 5.46333V1.66667C73.3402 0.746192 72.594 0 71.6735 0C70.7531 0 70.0069 0.746192 70.0069 1.66667V5H68.3402V1.66667C68.3402 0.746192 67.594 0 66.6735 0C65.7531 0 65.0069 0.746192 65.0069 1.66667V5.46333C63.979 6.05402 63.3438 7.14779 63.3402 8.33333V10.6217L51.2385 3.78833C50.4748 3.35636 49.5406 3.35636 48.7769 3.78833L36.6735 10.6217V8.33333C36.67 7.14779 36.0348 6.05402 35.0069 5.46333V1.66667C35.0069 0.746192 34.2607 0 33.3402 0C32.4197 0 31.6735 0.746192 31.6735 1.66667V5H30.0069V1.66667C30.0069 0.746192 29.2607 0 28.3402 0C27.4197 0 26.6735 0.746192 26.6735 1.66667V5.46333C25.6456 6.05402 25.0104 7.14779 25.0069 8.33333V17.2167L13.6152 23.6567C12.8798 24.0709 12.4031 24.8283 12.3476 25.6706C12.2922 26.5128 12.6655 27.3262 13.3402 27.8333V41.4667L1.02354 50.4333C0.150251 51.0877 -0.206677 52.2272 0.137272 53.2629C0.481221 54.2985 1.44896 54.9981 2.5402 55ZM58.3402 70V76.6667H51.6735V61.8333C55.5509 62.6307 58.3352 66.0415 58.3402 70ZM48.3402 76.6667H41.6735V70C41.6785 66.0415 44.4628 62.6307 48.3402 61.8333V76.6667ZM60.0069 80H63.3402V83.3333H36.6735V80H60.0069ZM70.0069 96.6667H30.0069V93.3333H70.0069V96.6667ZM66.6735 90H33.3402V86.6667H66.6735V90ZM93.3402 76.6667H73.3402C72.4197 76.6667 71.6735 77.4129 71.6735 78.3333C71.6735 79.2538 72.4197 80 73.3402 80H93.3402V83.3333H66.6735V80C66.6735 78.159 65.1812 76.6667 63.3402 76.6667H61.6735V70C61.6735 63.5567 56.4502 58.3333 50.0069 58.3333C43.5635 58.3333 38.3402 63.5567 38.3402 70V76.6667H36.6735C34.8326 76.6667 33.3402 78.159 33.3402 80V83.3333H6.67354V80H26.6735C27.594 80 28.3402 79.2538 28.3402 78.3333C28.3402 77.4129 27.594 76.6667 26.6735 76.6667H6.67354V55H93.3402V76.6667ZM16.6735 28.3333H83.3402V51.6667H16.6735V28.3333ZM95.0169 51.6667H86.6735V45.605L95.0169 51.6667ZM66.6735 8.33333H71.6735V15.3333L66.6735 12.5V8.33333ZM28.3402 8.33333H33.3402V12.5L28.3402 15.3333V8.33333ZM50.0069 6.915L82.0069 25H18.0069L50.0069 6.915ZM13.3402 45.5917V51.6667H4.99354L13.3402 45.5917Z" fill="black"/>
<path d="M16.6728 58.3333H13.3394C11.4985 58.3333 10.0061 59.8256 10.0061 61.6666V71.6666C10.0061 73.5075 11.4985 74.9999 13.3394 74.9999H16.6728C18.5137 74.9999 20.0061 73.5075 20.0061 71.6666V61.6666C20.0061 59.8256 18.5137 58.3333 16.6728 58.3333ZM13.3394 71.6666V61.6666H16.6728V71.6666H13.3394Z" fill="black"/>
<path d="M30.006 58.3333H26.6727C24.8317 58.3333 23.3394 59.8256 23.3394 61.6666V71.6666C23.3394 73.5075 24.8317 74.9999 26.6727 74.9999H30.006C31.847 74.9999 33.3394 73.5075 33.3394 71.6666V61.6666C33.3394 59.8256 31.847 58.3333 30.006 58.3333ZM26.6727 71.6666V61.6666H30.006V71.6666H26.6727Z" fill="black"/>
<path d="M73.3393 58.3333H70.0059C68.165 58.3333 66.6726 59.8256 66.6726 61.6666V71.6666C66.6726 73.5075 68.165 74.9999 70.0059 74.9999H73.3393C75.1802 74.9999 76.6726 73.5075 76.6726 71.6666V61.6666C76.6726 59.8256 75.1802 58.3333 73.3393 58.3333ZM70.0059 71.6666V61.6666H73.3393V71.6666H70.0059Z" fill="black"/>
<path d="M80.0059 61.6666V71.6666C80.0059 73.5075 81.4982 74.9999 83.3392 74.9999H86.6725C88.5135 74.9999 90.0059 73.5075 90.0059 71.6666V61.6666C90.0059 59.8256 88.5135 58.3333 86.6725 58.3333H83.3392C81.4982 58.3333 80.0059 59.8256 80.0059 61.6666ZM86.6725 71.6666H83.3392V61.6666H86.6725V71.6666Z" fill="black"/>
<path d="M26.6725 31.6667H23.3392C21.4982 31.6667 20.0059 33.1591 20.0059 35V45C20.0059 46.841 21.4982 48.3333 23.3392 48.3333H26.6725C28.5135 48.3333 30.0059 46.841 30.0059 45V35C30.0059 33.1591 28.5135 31.6667 26.6725 31.6667ZM23.3392 45V35H26.6725V45H23.3392Z" fill="black"/>
<path d="M40.006 31.6667H36.6727C34.8317 31.6667 33.3394 33.1591 33.3394 35V45C33.3394 46.841 34.8317 48.3333 36.6727 48.3333H40.006C41.847 48.3333 43.3393 46.841 43.3393 45V35C43.3393 33.1591 41.847 31.6667 40.006 31.6667ZM36.6727 45V35H40.006V45H36.6727Z" fill="black"/>
<path d="M63.3393 31.6667H60.0059C58.165 31.6667 56.6726 33.1591 56.6726 35V45C56.6726 46.841 58.165 48.3333 60.0059 48.3333H63.3393C65.1802 48.3333 66.6726 46.841 66.6726 45V35C66.6726 33.1591 65.1802 31.6667 63.3393 31.6667ZM60.0059 45V35H63.3393V45H60.0059Z" fill="black"/>
<path d="M76.6728 31.6667H73.3394C71.4985 31.6667 70.0061 33.1591 70.0061 35V45C70.0061 46.841 71.4985 48.3333 73.3394 48.3333H76.6728C78.5137 48.3333 80.0061 46.841 80.0061 45V35C80.0061 33.1591 78.5137 31.6667 76.6728 31.6667ZM73.3394 45V35H76.6728V45H73.3394Z" fill="black"/>
</g>
<defs>
<clipPath id="clip0_121_1130">
<rect width="100" height="100" fill="white" transform="translate(0.00610352)"/>
</clipPath>
</defs>
</svg>
