<svg width="100" height="100" viewBox="0 0 100 100" fill="none" xmlns="http://www.w3.org/2000/svg">
<g clip-path="url(#clip0_121_1009)">
<path d="M94.7063 15.0131H91.7766V17.9428H94.7063V15.0131Z" fill="black"/>
<path d="M89.8235 15.0131H86.8938V17.9428H89.8235V15.0131Z" fill="black"/>
<path d="M84.9407 15.0131H65.8276V17.9428H84.9407V15.0131Z" fill="black"/>
<path d="M84.9388 82.0576H72.1851V84.9873H84.9388V82.0576Z" fill="black"/>
<path d="M89.8235 82.0576H86.8938V84.9873H89.8235V82.0576Z" fill="black"/>
<path d="M94.7063 82.0576H91.7766V84.9873H94.7063V82.0576Z" fill="black"/>
<path d="M73.679 72.4758H60.9253V75.4055H73.679V72.4758Z" fill="black"/>
<path d="M78.5618 72.4758H75.6321V75.4055H78.5618V72.4758Z" fill="black"/>
<path d="M83.4446 72.4758H80.5149V75.4055H83.4446V72.4758Z" fill="black"/>
<path d="M90.5012 24.1306H87.5715V27.0603H90.5012V24.1306Z" fill="black"/>
<path d="M85.6184 24.1306H82.6887V27.0603H85.6184V24.1306Z" fill="black"/>
<path d="M80.7356 24.1306H67.9819V27.0603H80.7356V24.1306Z" fill="black"/>
<path d="M71.6849 33.6089H58.9312V36.5386H71.6849V33.6089Z" fill="black"/>
<path d="M81.4524 33.6089H78.5227V36.5386H81.4524V33.6089Z" fill="black"/>
<path d="M76.5698 33.6089H73.6401V36.5386H76.5698V33.6089Z" fill="black"/>
<path d="M14.6484 81.9325H11.7188V84.8622H14.6484V81.9325Z" fill="black"/>
<path d="M19.5312 81.9325H16.6016V84.8622H19.5312V81.9325Z" fill="black"/>
<path d="M9.76587 81.9325H6.83618V84.8622H9.76587V81.9325Z" fill="black"/>
<path d="M24.0957 72.4758H21.166V75.4055H24.0957V72.4758Z" fill="black"/>
<path d="M33.8611 72.4758H30.9314V75.4055H33.8611V72.4758Z" fill="black"/>
<path d="M28.9783 72.4758H26.0486V75.4055H28.9783V72.4758Z" fill="black"/>
<path d="M48.1306 62.7141H45.2009V65.6438H48.1306V62.7141Z" fill="black"/>
<path d="M53.0134 62.7141H50.0837V65.6438H53.0134V62.7141Z" fill="black"/>
<path d="M57.8962 62.7141H54.9666V65.6438H57.8962V62.7141Z" fill="black"/>
<path d="M62.7788 62.7141H59.8491V65.6438H62.7788V62.7141Z" fill="black"/>
<path d="M22.0879 24.1306H19.1582V27.0603H22.0879V24.1306Z" fill="black"/>
<path d="M26.9707 24.1306H24.041V27.0603H26.9707V24.1306Z" fill="black"/>
<path d="M17.2051 24.1306H14.2754V27.0603H17.2051V24.1306Z" fill="black"/>
<path d="M12.3223 24.1306H9.39258V27.0603H12.3223V24.1306Z" fill="black"/>
<path d="M0.00610352 10.312V22.6439H100.006V10.312H0.00610352ZM97.0764 19.7142H2.93579V17.9427H13.4836V15.013H2.93579V13.2417H97.0764V19.7142Z" fill="black"/>
<path d="M43.2034 77.3558V70.524H77.7407V67.5943H43.2034V60.7625H54.3034V57.8328H43.2034V51.001H49.5829V56.0554H87.9946V51.001H93.268V57.8328H58.2098V60.7625H93.2678V67.5943H81.6469V70.524H93.2678V74.9144H96.1975V25.0853H93.2678V28.5484H6.74438V25.0853H3.8147V74.9146H6.74438V70.5242H12.019V77.356H0.00610352V89.6879H100.006V77.356H43.2034V77.3558ZM87.9946 31.4781H93.268V38.3099H87.9946V31.4781ZM87.9946 41.2398H93.268V48.0717H87.9946V41.2398ZM52.5126 31.4781H85.0649V53.126H52.5126V31.4781ZM43.2034 31.4781H49.5829V38.3099H43.2034V31.4781ZM43.2034 41.2398H49.5829V48.0717H43.2034V41.2398ZM14.9485 65.6435H19.7245V62.7138H14.9485V31.4781H40.2737V41.4388H36.9208V44.3685H40.2737V77.3558H14.9485V65.6435ZM6.74438 31.4781H12.019V38.3099H6.74438V31.4781ZM6.74438 41.2398H12.019V48.0717H6.74438V41.2398ZM6.74438 51.0011H12.019V57.833H6.74438V51.0011ZM6.74438 67.5945V60.7627H12.019V67.5945H6.74438ZM97.0764 80.2855V86.7582H2.93579V80.2855H97.0764Z" fill="black"/>
<path d="M65.5325 48.0717H55.1226V51.0014H65.5325V48.0717Z" fill="black"/>
<path d="M37.3123 48.2554H34.3826V61.6732H37.3123V48.2554Z" fill="black"/>
<path d="M26.1133 33.6089H23.1836V36.5386H26.1133V33.6089Z" fill="black"/>
<path d="M36.9197 33.6089H28.0664V36.5386H36.9197V33.6089Z" fill="black"/>
<path d="M21.2305 33.6089H18.3008V36.5386H21.2305V33.6089Z" fill="black"/>
</g>
<defs>
<clipPath id="clip0_121_1009">
<rect width="100" height="100" fill="white" transform="translate(0.00610352)"/>
</clipPath>
</defs>
</svg>
