<svg width="100" height="100" viewBox="0 0 100 100" fill="none" xmlns="http://www.w3.org/2000/svg">
<g clip-path="url(#clip0_121_1146)">
<path d="M42.0044 52.0062H57.9956C59.665 52.0062 61.023 50.6482 61.023 48.9789V34.8017C61.023 33.1324 59.665 31.7744 57.9956 31.7744H42.0044C40.3351 31.7744 38.9771 33.1324 38.9771 34.8017V48.9789C38.9771 50.648 40.3353 52.0062 42.0044 52.0062ZM57.9958 49.0765H42.0046C41.9509 49.0765 41.9069 49.0328 41.9069 48.9789V46.6207H58.0935V48.9789C58.0935 49.0326 58.0495 49.0765 57.9958 49.0765ZM58.0935 34.8017V43.691H51.4649V34.704H57.9958C58.0495 34.704 58.0935 34.7478 58.0935 34.8017ZM42.0044 34.704H48.5353V43.691H41.9067V34.8017C41.9067 34.7478 41.9507 34.704 42.0044 34.704Z" fill="black"/>
<path d="M50.2483 28.2652C52.4022 28.2652 54.1545 26.5129 54.1545 24.3589C54.1545 22.205 52.4022 20.4527 50.2483 20.4527C48.0944 20.4527 46.342 22.205 46.342 24.3589C46.342 26.5129 48.0944 28.2652 50.2483 28.2652ZM50.2483 23.3824C50.7868 23.3824 51.2249 23.8205 51.2249 24.3589C51.2249 24.8974 50.7868 25.3355 50.2483 25.3355C49.7098 25.3355 49.2717 24.8974 49.2717 24.3589C49.2717 23.8205 49.71 23.3824 50.2483 23.3824Z" fill="black"/>
<path d="M28.6663 48.9789V34.8017C28.6663 33.1324 27.3083 31.7744 25.6389 31.7744H9.64771C7.97837 31.7744 6.62036 33.1324 6.62036 34.8017V48.9789C6.62036 50.6482 7.97837 52.0062 9.64771 52.0062H25.6389C27.3081 52.0062 28.6663 50.648 28.6663 48.9789ZM25.7366 34.8017V43.691H19.1081V34.704H25.6389C25.6926 34.704 25.7366 34.7478 25.7366 34.8017ZM9.64771 34.704H16.1786V43.691H9.55005V34.8017C9.55005 34.7478 9.5938 34.704 9.64771 34.704ZM9.55005 48.9789V46.6207H25.7366V48.9789C25.7366 49.0328 25.6926 49.0765 25.6389 49.0765H9.64771C9.5938 49.0765 9.55005 49.0326 9.55005 48.9789Z" fill="black"/>
<path d="M17.8914 28.2652C20.0453 28.2652 21.7976 26.5129 21.7976 24.3589C21.7976 22.205 20.0453 20.4527 17.8914 20.4527C15.7375 20.4527 13.9851 22.205 13.9851 24.3589C13.9851 26.5129 15.7375 28.2652 17.8914 28.2652ZM17.8914 23.3824C18.4298 23.3824 18.8679 23.8205 18.8679 24.3589C18.8679 24.8974 18.4298 25.3355 17.8914 25.3355C17.3529 25.3355 16.9148 24.8974 16.9148 24.3589C16.9148 23.8205 17.3531 23.3824 17.8914 23.3824Z" fill="black"/>
<path d="M98.8187 26.0908L97.1484 24.3014V14.0143C97.1484 12.5604 95.9656 11.3776 94.5117 11.3776H91.7695C90.3156 11.3776 89.1328 12.5604 89.1328 14.0143V15.7139L85.5693 11.8961C84.7414 11.008 83.5703 10.4987 82.3564 10.4987C81.1426 10.4987 79.9715 11.008 79.1439 11.8957L66.1785 25.7883L64.791 24.3016V14.0143C64.791 12.5604 63.6082 11.3776 62.1543 11.3776H59.4121C57.9582 11.3776 56.7754 12.5604 56.7754 14.0143V15.7125L53.2129 11.8951C52.3848 11.0078 51.2137 10.4989 50 10.4989C48.7863 10.4989 47.6152 11.0078 46.7871 11.8951L33.8217 25.7883L32.4357 24.3031V14.0143C32.4357 12.5604 31.2529 11.3776 29.799 11.3776H27.0547C25.6008 11.3776 24.418 12.5604 24.418 14.0143V15.7115L20.8562 11.8949C20.0281 11.0076 18.857 10.4987 17.6432 10.4987C16.4295 10.4987 15.2586 11.0076 14.4307 11.8949L1.18164 26.0916C0.419531 26.9082 0 27.9731 0 29.0899V86.0834C0 87.968 1.5334 89.5014 3.41797 89.5014L96.582 89.5006C98.4666 89.5006 100 87.9672 100 86.0826V72.2643C100 71.4553 99.3443 70.7994 98.5352 70.7994C97.726 70.7994 97.0703 71.4553 97.0703 72.2643V86.0826C97.0703 86.3518 96.8514 86.5709 96.582 86.5709H92.0621V76.3303C92.0621 70.9787 87.7084 66.625 82.3568 66.625C77.0053 66.625 72.6516 70.9789 72.6516 76.3303V86.5709H67.6432V59.4498H97.0703V65.4283C97.0703 66.2373 97.726 66.8932 98.5352 66.8932C99.3443 66.8932 100 66.2373 100 65.4283V29.0905C100 27.9739 99.5809 26.9088 98.8187 26.0908ZM92.0625 14.3073H94.2188V21.1627L92.0625 18.8526V14.3073ZM59.7051 14.3073H61.8613V21.1623L59.7051 18.8518V14.3073ZM35.6805 28.0905L48.9291 13.894C49.2092 13.5938 49.5896 13.4285 50 13.4285C50.4104 13.4285 50.791 13.594 51.0709 13.894L64.3195 28.0905C64.5723 28.3612 64.7117 28.7141 64.7131 29.0842C64.7131 29.0864 64.7129 29.0885 64.7129 29.0907C64.7129 29.0946 64.7135 29.0981 64.7135 29.102V56.5203H35.2865V29.0899C35.2865 28.7176 35.4264 28.3625 35.6805 28.0905ZM27.3477 14.3073H29.5061V21.1637L27.3477 18.851V14.3073ZM2.92969 86.0834V59.4498H21.5898C22.399 59.4498 23.0547 58.794 23.0547 57.985C23.0547 57.176 22.399 56.5201 21.5898 56.5201H2.92969V29.0899C2.92969 28.7176 3.06973 28.3625 3.32363 28.0905L16.5725 13.8938C16.8525 13.5938 17.2328 13.4285 17.6432 13.4283C18.0537 13.4283 18.4342 13.5938 18.7141 13.8938L31.9627 28.0903C32.2168 28.3627 32.3568 28.7176 32.3568 29.0899V56.5201H28.4258C27.6166 56.5201 26.9609 57.176 26.9609 57.985C26.9609 58.794 27.6166 59.4498 28.4258 59.4498H32.3568V86.5717H27.3484V76.3303C27.3484 70.9787 22.9947 66.625 17.6432 66.625C12.2916 66.625 7.93789 70.9789 7.93789 76.3303V86.5717H3.41797C3.14863 86.5717 2.92969 86.3526 2.92969 86.0834ZM19.5357 79.4889H15.7506V76.3307C15.7506 75.2871 16.5996 74.4381 17.643 74.4381C18.6867 74.4381 19.5355 75.2871 19.5355 76.3307V79.4889H19.5357ZM15.7508 82.4186H19.5359V86.5717H15.7508V82.4186ZM17.6432 71.5086C14.9842 71.5086 12.8211 73.6719 12.8211 76.3309V86.5719H10.8676V76.3305C10.8676 72.5944 13.907 69.5549 17.6432 69.5549C21.3793 69.5549 24.4188 72.5944 24.4188 76.3305V86.5719H22.4654V76.3309C22.4654 73.6717 20.3021 71.5086 17.6432 71.5086ZM56.7756 86.5717H54.8223V76.3307C54.8223 73.6717 52.659 71.5084 50 71.5084C47.341 71.5084 45.1777 73.6717 45.1777 76.3307V86.5717H43.2244V76.3303C43.2244 72.5942 46.2639 69.5547 50 69.5547C53.7361 69.5547 56.7756 72.5942 56.7756 76.3303V86.5717ZM51.8926 79.4889H48.1074V76.3307C48.1074 75.2871 48.9564 74.4381 50 74.4381C51.0436 74.4381 51.8926 75.2871 51.8926 76.3307V79.4889ZM48.1074 82.4186H51.8928V86.5717H48.1074V82.4186ZM84.2492 79.4889H80.4641V76.3307C80.4641 75.2871 81.3131 74.4381 82.3566 74.4381C83.4002 74.4381 84.249 75.2871 84.249 76.3307V79.4889H84.2492ZM80.4643 82.4186H84.2494V86.5709H80.4643V82.4186ZM75.5813 76.3303C75.5813 72.5942 78.6207 69.5547 82.3568 69.5547C86.093 69.5547 89.1324 72.5942 89.1324 76.3303V86.5709H87.1789V76.3307C87.1789 73.6717 85.0158 71.5084 82.3568 71.5084C79.6979 71.5084 77.5346 73.6717 77.5346 76.3307V86.5709H75.5813V76.3303ZM64.7135 86.5717H59.7053V76.3303C59.7053 70.9787 55.3516 66.625 50 66.625C44.6484 66.625 40.2947 70.9789 40.2947 76.3303V86.5717H35.2865V59.4498H64.7135V86.5717ZM67.6432 56.5201V29.0899C67.6432 29.0879 67.643 29.086 67.643 29.084C67.6445 28.7135 67.784 28.3612 68.0379 28.0899L81.2863 13.894C81.5664 13.5936 81.9465 13.4281 82.3564 13.4281C82.7664 13.4281 83.1467 13.5936 83.4271 13.8946L96.6762 28.0889C96.9303 28.3617 97.0703 28.7174 97.0703 29.0903V56.5199H67.6432V56.5201Z" fill="black"/>
<path d="M90.3523 31.7744H74.3611C72.6917 31.7744 71.3337 33.1324 71.3337 34.8017V48.9789C71.3337 50.6482 72.6917 52.0062 74.3611 52.0062H90.3523C92.0216 52.0062 93.3796 50.6482 93.3796 48.9789V34.8017C93.3796 33.1324 92.0216 31.7744 90.3523 31.7744ZM90.45 34.8017V43.691H83.8214V34.704H90.3523C90.4062 34.704 90.45 34.7478 90.45 34.8017ZM74.3611 34.704H80.8919V43.691H74.2634V34.8017C74.2634 34.7478 74.3074 34.704 74.3611 34.704ZM90.3523 49.0765H74.3611C74.3074 49.0765 74.2634 49.0328 74.2634 48.9789V46.6207H90.45V48.9789C90.45 49.0326 90.4062 49.0765 90.3523 49.0765Z" fill="black"/>
<path d="M82.605 28.2652C84.7589 28.2652 86.5112 26.5129 86.5112 24.3589C86.5112 22.205 84.7589 20.4527 82.605 20.4527C80.4511 20.4527 78.6987 22.205 78.6987 24.3589C78.6987 26.5129 80.4511 28.2652 82.605 28.2652ZM82.605 23.3824C83.1435 23.3824 83.5815 23.8205 83.5815 24.3589C83.5815 24.8974 83.1435 25.3355 82.605 25.3355C82.0665 25.3355 81.6284 24.8974 81.6284 24.3589C81.6284 23.8205 82.0667 23.3824 82.605 23.3824Z" fill="black"/>
</g>
<defs>
<clipPath id="clip0_121_1146">
<rect width="100" height="100" fill="white"/>
</clipPath>
</defs>
</svg>
